<svg xmlns="http://www.w3.org/2000/svg" width="656" height="382" viewBox="0 0 656 382"><rect width="100%" height="100%" fill="#DDDDDD"/><path fill="#999999" d="M163.045 173.235v37.68h-7.53l-15.22-25.75-.15.03v25.72h-7.56v-37.68h7.56l15.22 25.72.15-.02v-25.7h7.53Zm18.84 38.22q-6.05 0-9.68-3.88-3.62-3.88-3.62-9.86v-1.03q0-6.24 3.43-10.28 3.43-4.03 9.2-4.01 5.67 0 8.8 3.42 3.13 3.41 3.13 9.24v4.11h-16.72l-.05.16q.21 2.77 1.85 4.55 1.64 1.79 4.46 1.79 2.51 0 4.17-.51 1.66-.5 3.62-1.59l2.05 4.66q-1.71 1.4-4.48 2.31-2.77.92-6.16.92Zm-.67-23.24q-2.1 0-3.31 1.61-1.22 1.6-1.51 4.22l.08.13h9.27v-.68q0-2.4-1.13-3.84-1.12-1.44-3.4-1.44Zm35.4-5.3 5.28 17.98h.16l3.64-17.98h7.1l-7.12 28h-6.32l-5.2-16.67h-.15l-5.2 16.67h-6.29l-7.12-28h7.09l3.7 17.93h.16l5.22-17.93h5.05Zm35.07 20.29q0-1.24-1.21-2.15-1.2-.91-4.46-1.6-4.97-1.01-7.49-2.99-2.53-1.98-2.53-5.4 0-3.62 3.04-6.15 3.05-2.52 8.14-2.52 5.36 0 8.53 2.51 3.17 2.51 3.04 6.34l-.05.16h-7.3q0-1.68-1.07-2.75-1.08-1.06-3.15-1.06-1.83 0-2.88.9-1.05.89-1.05 2.23 0 1.3 1.1 2.13 1.1.82 4.46 1.47 5.18 1.04 7.69 3.04 2.51 2.01 2.51 5.53 0 3.78-3.23 6.17-3.24 2.39-8.54 2.39-5.59 0-8.84-2.83t-3.09-6.46l.05-.15h6.91q.07 2.25 1.47 3.26 1.4 1.01 3.65 1.01 2.1 0 3.2-.83t1.1-2.25Zm52.04-29.97v5.82h-10.66v31.86h-7.56v-31.86h-10.61v-5.82h28.83Zm10.97-2.69v15.91q1.32-1.91 3.24-2.98 1.91-1.08 4.24-1.08 4.37 0 6.87 2.91t2.5 9v16.61h-7.56v-16.67q0-3.26-1.15-4.62-1.15-1.35-3.43-1.35-1.55 0-2.74.55-1.19.56-1.97 1.57v20.52h-7.55v-40.37h7.55Zm40.32 40.37-.67-4.04q-1.3 2.2-3.29 3.39t-4.58 1.19q-4.42 0-6.92-2.83t-2.5-8.81v-16.9h7.53v16.95q0 3.05 1.04 4.39 1.03 1.33 3.05 1.33 1.81 0 3.11-.58 1.29-.59 2.12-1.72v-20.37h7.55v28h-6.44Zm12.14-28h7.01l.31 3.7q1.35-2.02 3.38-3.12t4.7-1.1q2.69 0 4.6 1.19 1.92 1.19 2.9 3.6 1.3-2.25 3.37-3.52 2.07-1.27 4.86-1.27 4.14 0 6.54 2.86 2.39 2.86 2.39 8.71v16.95h-7.56v-16.98q0-3.18-1.03-4.42-1.04-1.24-3.08-1.24-1.61 0-2.78.71-1.18.71-1.88 1.98 0 .49.03.84.02.35.02.71v18.4h-7.53v-16.98q0-3.1-1.03-4.38-1.04-1.28-3.11-1.28-1.53 0-2.68.58-1.15.58-1.9 1.64v20.42h-7.53v-28Zm71.11 14.23v.55q0 6.26-2.79 10.01-2.8 3.75-8.08 3.75-2.43 0-4.25-1.02-1.83-1.02-3.1-2.99l-.56 3.47h-6.47v-40.37h7.53v15.35q1.21-1.69 2.91-2.59 1.69-.91 3.89-.91 5.33 0 8.13 4.03 2.79 4.02 2.79 10.72Zm-7.53.55v-.55q0-4.09-1.2-6.48-1.2-2.39-4.1-2.39-1.76 0-2.98.73-1.21.74-1.91 2.11v11.86q.7 1.26 1.92 1.94 1.23.67 3.02.67 2.92 0 4.09-2.06 1.16-2.06 1.16-5.83Zm12.06-14.78h7.04l.34 4.01q1.4-2.15 3.44-3.34t4.58-1.19q4.24 0 6.63 2.67 2.38 2.66 2.38 8.36v17.49h-7.59v-17.47q0-2.82-1.14-4-1.13-1.17-3.44-1.17-1.5 0-2.69.6-1.19.61-1.99 1.73v20.31h-7.56v-28Zm54.04 28h-7.56q-.41-.96-.71-2.02t-.43-2.17q-1.16 2.04-3.06 3.39-1.91 1.34-4.55 1.34-4.4 0-6.78-2.26-2.38-2.27-2.38-6.17 0-4.12 3.17-6.38 3.17-2.27 9.25-2.27h4.22v-2.22q0-2.02-1.06-3.13-1.06-1.12-3.13-1.12-1.84 0-2.83.9-1 .89-1 2.47l-7.3-.03-.02-.15q-.18-3.55 3.08-6.12 3.26-2.58 8.56-2.58 5.02 0 8.15 2.55 3.14 2.55 3.14 7.26v11.57q0 1.96.29 3.7.3 1.73.95 3.44Zm-14.47-5.05q1.99 0 3.55-.98 1.55-.98 2.09-2.28v-3.96h-4.22q-2.4 0-3.64 1.21-1.25 1.2-1.25 2.91 0 1.4.94 2.25.93.85 2.53.85Zm26.89-22.95v28h-7.56v-28h7.56Zm0-12.37v5.67h-7.56v-5.67h7.56Zm14.16 0v40.37h-7.56v-40.37h7.56Z"/></svg>